<?xml version="1.0" encoding="utf-8"?>

<!DOCTYPE svg PUBLIC "-//W3C//DTD SVG 1.1//EN" "http://www.w3.org/Graphics/SVG/1.1/DTD/svg11.dtd">
<svg version="1.1" id="CoreKit Logo" xmlns="http://www.w3.org/2000/svg" xmlns:xlink="http://www.w3.org/1999/xlink" x="0px" y="0px"
	 width="1014.868px" height="319.997px" viewBox="0 0 1014.868 319.997" enable-background="new 0 0 1014.868 319.997"
	 xml:space="preserve">

<!-- Fonts: Khand, Dorsis -->
<g id="Text">
	<path id="BETA" fill="#8C7AE6" d="M849.612,314.77c0,1.477,1.475,2.788,3.854,2.788h16.645
		c9.186,0,16.32-4.509,16.32-17.22v-1.561c0-8.365-3.361-11.727-8.447-13.693c4.264-1.887,6.971-6.479,6.971-13.284
		c0-11.563-7.789-14.187-16.564-14.187h-14.924c-1.832-0.291-3.553,0.959-3.842,2.791c-0.006,0.025-0.01,0.053-0.012,0.078v54.285
		V314.77z M858.221,309.85v-21.32h10.258c5.822,0,9.266,2.625,9.266,9.84v1.312c0,7.054-3.443,10.169-9.266,10.169h-10.25H858.221z
		 M858.221,265.325h9.594c5.166,0,8.445,2.376,8.445,7.871c0,5.576-2.703,8.446-8.281,8.446h-9.756v-16.317H858.221z
		 M903.649,265.325h24.354c1.805,0,2.871-1.805,2.871-3.938c0.264-1.813-0.99-3.498-2.803-3.763
		c-0.023-0.003-0.045-0.007-0.068-0.009h-29.191c-1.855-0.27-3.58,1.015-3.854,2.869v54.203c0.273,1.855,1.998,3.139,3.854,2.87
		h29.191c1.818-0.228,3.107-1.886,2.879-3.704c-0.002-0.021-0.006-0.045-0.008-0.068c0-2.132-1.066-3.936-2.871-3.936h-24.354
		v-18.859h12.635c1.691-0.102,2.979-1.555,2.877-3.246c-0.002-0.039-0.006-0.078-0.008-0.116c0.219-1.722-1-3.294-2.721-3.513
		c-0.049-0.006-0.1-0.012-0.148-0.016h-12.629v-18.775H903.649z M936.448,257.616c-1.967,0-2.869,2.051-2.869,3.936
		c0,2.133,1.066,4.02,2.869,4.02h12.709v49.117c0,1.887,2.133,2.87,4.348,2.87c2.133,0,4.346-0.976,4.346-2.87v-49.117h12.629
		c1.887,0,2.869-1.969,2.869-4.098c0-1.885-0.9-3.854-2.869-3.854h-34.031V257.616z M976.381,317.558
		c1.311,0.194,2.578-0.559,3.033-1.804l3.361-11.645h20.254l3.363,11.645c0.434,1.223,1.666,1.975,2.951,1.804
		c2.461,0,5.494-1.562,5.494-3.608c-0.016-0.252-0.07-0.502-0.164-0.737l-16.234-53.137c-0.658-1.969-3.123-2.952-5.578-2.952
		c-2.268-0.262-4.459,0.916-5.494,2.952l-16.318,53.137c-0.066,0.239-0.094,0.489-0.08,0.737
		C970.969,316.083,974.004,317.558,976.381,317.558z M984.661,297.141l8.195-28.127l8.195,28.127H984.661z"/>
	<path id="Kit" fill="#2F3640" d="M792.829,224.388h18.48V49.506h-18.477v174.882H792.829z M824.577,137.207
		l37.996,87.182h20.561l-38.777-87.701l36.695-87.182h-20.039L824.577,137.207z M926.071,47.684c0-7.978-3.771-11.968-11.316-11.971
		s-11.318,3.988-11.318,11.971c0,7.981,3.773,11.973,11.318,11.973s11.316-3.991,11.318-11.973H926.071z M905.512,224.388h18.479
		V77.352h-18.479V224.388z M965.368,49.506l-5.203,26.806h-16.918v16.39h16.137v99.688c0,22.035,11.625,33.053,34.873,33.051
		c6.586-0.069,13.137-0.943,19.512-2.604V205.92c-5.705,1.906-11.682,2.873-17.697,2.861c-6.076,0-10.586-1.344-13.531-4.032
		c-2.947-2.688-4.422-7.069-4.424-13.142V92.706h33.055v-16.39h-33.049v-26.81H965.368z"/>
	<path id="Core" fill="#2F3640" d="M391.545,190.556c0,23.423,14.661,35.134,43.982,35.134
		c10.131,0.164,20.227-1.24,29.928-4.164v-12.232c-10.053,2.975-20.486,4.466-30.97,4.426c-10.759,0-18.434-1.951-23.024-5.854
		c-4.59-3.902-6.89-9.672-6.897-17.308V84.901c0-7.633,2.3-13.402,6.897-17.305c4.599-3.904,12.188-5.855,22.771-5.854
		c10.397-0.026,20.742,1.464,30.708,4.423V53.933c-9.56-2.752-19.458-4.153-29.406-4.164c-29.322,0-43.983,11.711-43.982,35.133
		V190.56L391.545,190.556z M560.442,187.172c0,18.732-9.105,28.102-27.318,28.107c-18.211,0.007-27.316-9.359-27.316-28.098v-72.096
		c0-18.731,9.105-28.098,27.316-28.098c18.213,0,27.318,9.366,27.318,28.098V187.172z M492.777,187.172
		c0,11.968,3.297,21.598,9.889,28.889c6.592,7.291,16.739,10.933,30.438,10.926c13.705,0,23.854-3.643,30.449-10.926
		c6.596-7.285,9.891-16.914,9.889-28.889v-72.086c0-11.967-3.297-21.593-9.889-28.878s-16.742-10.927-30.449-10.927
		c-13.705,0-23.852,3.643-30.438,10.927c-6.586,7.285-9.882,16.91-9.889,28.878V187.172z M641.633,78.394
		c-1.736,0.521-3.125,0.954-4.164,1.299c-1.402,0.522-2.754,1.176-4.033,1.951c-1.598,0.919-3.121,1.963-4.555,3.122
		c-1.393,1.132-3.473,2.65-6.244,4.554V77.873h-12.752v146.516h13.012V103.376c1.387-0.866,3.295-2.254,5.725-4.164
		c1.586-1.297,3.236-2.514,4.945-3.645c0.865-0.52,2.602-1.604,5.205-3.252c3.604-1.879,7.652-2.734,11.707-2.472h9.365V77.092
		h-7.023c-3.773-0.09-7.539,0.348-11.189,1.302l0,0H641.633z M725.688,225.69c9.764,0.088,19.488-1.227,28.879-3.902v-12.752
		c-9.361,2.871-19.088,4.36-28.879,4.424c-23.076,0-34.613-8.414-34.611-25.242v-29.411h68.182v-43.459
		c0-11.967-3.34-21.639-10.02-29.016s-16.871-11.064-30.578-11.062c-13.709,0-23.9,3.687-30.578,11.062
		c-6.676,7.374-10.016,17.046-10.02,29.016v72.868C678.063,213.198,693.938,225.69,725.688,225.69L725.688,225.69L725.688,225.69z
		 M691.077,115.347c0-18.91,9.193-28.365,27.584-28.367c18.389-0.001,27.584,9.455,27.586,28.367v31.75h-55.17V115.347z"/>
</g>

<!-- Credit: https://www.flaticon.com/free-icon/settings_321777 -->
<g id="Icon">
	<path fill="#FF7058" d="M311.214,184.744c0.662-3.974,0.662-7.285,0-11.258l6.622-6.621l-6.622-16.554h-9.27
		c-1.987-2.648-5.298-5.297-7.946-7.946v-9.27l-16.555-6.622l-6.622,6.622c-3.973-0.662-7.284-0.662-11.256,0l-6.622-6.622
		l-16.553,6.622v9.27c-2.649,1.987-5.296,5.298-7.946,7.946h-9.271l-6.622,16.554l6.622,6.621c-0.663,3.973-0.663,7.284,0,11.258
		l-6.622,6.62l6.622,16.554h9.271c1.988,2.648,5.297,5.298,7.946,7.946v9.271l16.553,6.621l6.622-6.621
		c3.972,0.663,7.284,0.663,11.256,0l6.622,6.621l16.555-6.621v-9.271c2.648-1.986,5.297-5.298,7.946-7.946h9.27l6.622-16.554
		L311.214,184.744z M257.58,199.309c-11.256-4.635-16.554-17.217-11.919-27.811c4.634-11.257,17.215-16.554,27.811-11.919
		c11.256,4.636,16.553,17.217,11.919,27.812C281.417,198.647,268.836,203.945,257.58,199.309z"/>
	<path fill="#4CDBC4" d="M224.473,271.485c0.662-3.973,0.662-7.284,0-11.258l6.622-6.62l-6.622-16.555h-9.271
		c-1.987-2.649-5.296-5.297-7.946-7.945v-9.271l-16.552-6.621l-6.622,6.621c-3.974-0.662-7.284-0.662-11.257,0l-6.623-6.621
		l-16.553,6.621v9.271c-2.649,1.986-5.297,5.296-7.946,7.945h-9.271l-6.622,16.555l6.622,6.62c-0.662,3.974-0.662,7.285,0,11.258
		l-6.622,6.622l6.622,16.552h9.271c1.986,2.65,5.297,5.298,7.946,7.947v9.271l16.553,6.622l6.623-6.622
		c3.973,0.663,7.283,0.663,11.257,0l6.622,6.622l16.552-6.622v-9.271c2.65-1.987,5.297-5.297,7.946-7.947h9.271l6.622-16.552
		L224.473,271.485z M171.5,285.39c-11.257-4.635-16.555-17.216-11.919-27.811c4.635-11.257,17.216-16.554,27.811-11.919
		c11.257,4.635,16.555,17.216,11.919,27.812C194.674,284.728,182.094,290.025,171.5,285.39z"/>
	<g>
		<path fill="#84DBFF" d="M213.215,89.391c-1.986-7.945-5.297-15.892-9.27-23.174l7.946-18.541l-27.811-27.148l-18.541,7.945
			c-7.284-3.973-14.568-7.284-23.176-9.27L135.743,0H96.675l-7.283,19.203c-7.946,1.986-15.893,5.297-23.175,9.27l-18.542-7.945
			L20.527,47.675l7.946,18.541C24.5,73.5,21.189,80.784,19.203,89.391L0,96.675v39.067l19.203,7.284
			c1.987,7.946,5.297,15.893,9.27,23.176l-7.945,18.54l27.81,27.148l18.541-7.945c7.283,3.973,14.567,7.283,23.175,9.271
			l7.284,19.202h38.405l7.284-19.202c7.947-1.987,15.893-5.298,23.175-9.271l18.541,7.945l27.811-27.148l-7.946-18.54
			c3.974-7.284,7.284-14.568,9.271-23.176l19.203-7.284V96.675L213.215,89.391z M115.878,163.553
			c-26.486,0-47.675-21.189-47.675-47.676c0-26.487,21.189-47.675,47.675-47.675c26.486,0,47.676,21.188,47.676,47.675
			C163.554,142.364,142.364,163.553,115.878,163.553z"/>
		<path fill="#54C0EB" d="M149.647,149.648c-18.54,18.54-48.337,18.54-66.878,0l-17.216,17.216c27.811,27.811,73.5,27.811,101.31,0
			c27.811-27.811,27.811-72.837,0-101.311l-17.215,17.216C168.188,101.31,168.188,131.107,149.647,149.648z"/>
		<path fill="#54C0EB" d="M65.553,65.553c-27.811,27.811-27.811,72.838,0,101.311l17.216-17.216
			c-18.54-18.541-18.54-48.338,0-66.879c18.541-18.54,48.339-18.54,66.878,0l17.215-17.216
			C139.054,37.743,93.364,37.743,65.553,65.553z"/>
	</g>
</g>
</svg>
